sh_-0.1_80rpm
version=1
nRows=7
nColumns=49
inDegrees=yes
endheader
time	/jointset/bb/crank_angle/value	/jointset/bb/crank_angle/speed	/jointset/spindle/pedal_angle_r/value	/jointset/spindle/pedal_angle_r/speed	/jointset/ground_pelvis/pelvis_tilt/value	/jointset/ground_pelvis/pelvis_tilt/speed	/jointset/ground_pelvis/pelvis_list/value	/jointset/ground_pelvis/pelvis_list/speed	/jointset/ground_pelvis/pelvis_rotation/value	/jointset/ground_pelvis/pelvis_rotation/speed	/jointset/ground_pelvis/pelvis_tx/value	/jointset/ground_pelvis/pelvis_tx/speed	/jointset/ground_pelvis/pelvis_ty/value	/jointset/ground_pelvis/pelvis_ty/speed	/jointset/ground_pelvis/pelvis_tz/value	/jointset/ground_pelvis/pelvis_tz/speed	/jointset/hip_r/hip_angle_r/value	/jointset/hip_r/hip_angle_r/speed	/jointset/hip_r/hip_adduction_r/value	/jointset/hip_r/hip_adduction_r/speed	/jointset/hip_r/hip_rotation_r/value	/jointset/hip_r/hip_rotation_r/speed	/jointset/knee_r/knee_angle_r/value	/jointset/knee_r/knee_angle_r/speed	/jointset/knee_r/tib_tx_r/value	/jointset/knee_r/tib_tx_r/speed	/jointset/knee_r/tib_ty_r/value	/jointset/knee_r/tib_ty_r/speed	/jointset/tib_pat_r/pat_angle_r/value	/jointset/tib_pat_r/pat_angle_r/speed	/jointset/tib_pat_r/pat_tx_r/value	/jointset/tib_pat_r/pat_tx_r/speed	/jointset/tib_pat_r/pat_ty_r/value	/jointset/tib_pat_r/pat_ty_r/speed	/jointset/ankle_r/ankle_angle_r/value	/jointset/ankle_r/ankle_angle_r/speed	/jointset/subtalar_r/subtalar_angle_r/value	/jointset/subtalar_r/subtalar_angle_r/speed	/jointset/mtp_r/mtp_angle_r/value	/jointset/mtp_r/mtp_angle_r/speed	/forceset/bifemlh_r/activation	/forceset/bifemlh_r/fiber_length	/forceset/bifemsh_r/activation	/forceset/bifemsh_r/fiber_length	/forceset/glut_max2_r/activation	/forceset/glut_max2_r/fiber_length	/forceset/vas_int_r/activation	/forceset/vas_int_r/fiber_length
      3.61491332	  -1735.15839262	   -480.00000000	   1711.63476154	    532.17442637	      0.00000000	      0.00000000	      0.00000000	     -0.00000000	     -0.00000000	     -0.00000000	     -0.10000000	      0.00000000	     -0.10000000	      0.00000000	      0.00000000	      0.00000000	     67.45586912	    160.99611345	      4.04048692	     -1.67043501	     -4.21840982	    -18.78294470	   -119.27308182	   -169.97301585	     -0.00348334	     -0.06320484	     -0.49580969	     -0.05373493	     17.65047392	     -0.10963415	      0.01981179	     -0.08647567	     -0.02454908	     -0.01408823	     29.02345523	     62.90608778	      0.00000000	      0.00000000	     -0.00000000	     -0.00000000	      0.05000000	      0.10000000	      0.05000000	      0.10000000	      0.05000000	      0.10000000	      0.05000000	      0.10000000
      3.61965942	  -1737.43651937	   -480.00000000	   1714.18019947	    540.44209060	      0.00000000	     -0.00000000	      0.00000000	      0.00000000	     -0.00000000	      0.00000000	     -0.10000000	     -0.00000000	     -0.10000000	     -0.00000000	      0.00000000	      0.00000000	     68.22418540	    162.73207365	      4.03276668	     -1.58139802	     -4.30631400	    -18.24898376	   -120.06257579	   -162.65762588	     -0.00377967	     -0.06153237	     -0.49605857	     -0.05115379	     17.64987603	     -0.13830339	      0.01940857	     -0.08334549	     -0.02461479	     -0.01358502	     29.32018928	     62.08619959	      0.00000000	     -0.00000000	     -0.00000000	     -0.00000000	      0.05000000	      0.10000000	      0.05000000	      0.10000000	      0.05000000	      0.10000000	      0.05000000	      0.10000000
      3.63968426	  -1747.04844556	   -480.00000000	   1725.33475569	    572.89065725	      0.00000000	     -0.00000000	      0.00000000	      0.00000000	     -0.00000000	      0.00000000	     -0.10000000	      0.00000000	     -0.10000000	     -0.00000000	      0.00000000	      0.00000000	     71.53645902	    167.48639163	      4.00544880	     -1.14159865	     -4.64383854	    -15.27070483	   -122.98253350	   -128.13910315	     -0.00488427	     -0.04847423	     -0.49697686	     -0.04029815	     17.64739327	     -0.10895322	      0.01791239	     -0.06565826	     -0.02485866	     -0.01070207	     30.50278589	     55.02602818	      0.00000000	     -0.00000000	     -0.00000000	     -0.00000000	      0.05000000	      0.10000000	      0.05000000	      0.10000000	      0.05000000	      0.10000000	      0.05000000	      0.10000000
      3.65728013	  -1755.49446237	   -480.00000000	   1735.63262605	    596.70196738	      0.00000000	     -0.00000000	      0.00000000	      0.00000000	     -0.00000000	      0.00000000	     -0.10000000	      0.00000000	     -0.10000000	      0.00000000	      0.00000000	     -0.00000000	     74.49458387	    168.07613377	      3.98878543	     -0.75701548	     -4.88238044	    -11.69559587	   -124.94118970	    -93.93998596	     -0.00562522	     -0.03553692	     -0.49759284	     -0.02954295	     17.64572787	     -0.07987463	      0.01690878	     -0.04813469	     -0.02502225	     -0.00784579	     31.37856819	     43.72448292	      0.00000000	     -0.00000000	     -0.00000000	     -0.00000000	      0.05000000	      0.10000000	      0.05000000	      0.10000000	      0.05000000	      0.10000000	      0.05000000	      0.10000000
      3.67487600	  -1763.94047919	   -480.00000000	   1746.29784887	    614.42335210	      0.00000000	      0.00000000	      0.00000000	      0.00000000	     -0.00000000	      0.00000000	     -0.10000000	     -0.00000000	     -0.10000000	     -0.00000000	      0.00000000	     -0.00000000	     77.42423457	    164.04443695	      3.97854729	     -0.41547733	     -5.05060539	     -7.30540857	   -126.27153566	    -56.87088602	     -0.00612848	     -0.02151390	     -0.49801121	     -0.01788518	     17.64459672	     -0.04835578	      0.01622711	     -0.02914055	     -0.02513336	     -0.00474981	     32.01524968	     27.98345654	      0.00000000	     -0.00000000	     -0.00000000	     -0.00000000	      0.05000000	      0.10000000	      0.05000000	      0.10000000	      0.05000000	      0.10000000	      0.05000000	      0.10000000
      3.69247187	  -1772.38649600	   -480.00000000	   1757.21382437	    625.12175656	      0.00000000	      0.00000000	      0.00000000	     -0.00000000	      0.00000000	      0.00000000	     -0.10000000	     -0.00000000	     -0.10000000	     -0.00000000	      0.00000000	     -0.00000000	     80.23359076	    154.23111512	      3.97386459	     -0.12339130	     -5.13608653	     -2.34411728	   -126.93170870	    -17.95864748	     -0.00637822	     -0.00679365	     -0.49821883	     -0.00564777	     17.64403539	     -0.01526975	      0.01588884	     -0.00920198	     -0.02518850	     -0.00149989	     32.34463880	      9.08629401	      0.00000000	     -0.00000000	     -0.00000000	     -0.00000000	      0.05000000	      0.10000000	      0.05000000	      0.10000000	      0.05000000	      0.10000000	      0.05000000	      0.10000000
      3.71006774	  -1780.83251282	   -480.00000000	   1768.25555483	    628.79888079	      0.00000000	      0.00000000	      0.00000000	      0.00000000	      0.00000000	      0.00000000	     -0.10000000	     -0.00000000	     -0.10000000	     -0.00000000	      0.00000000	     -0.00000000	     82.81320806	    137.85207382	      3.97408301	      0.14857538	     -5.13194842	      2.81113155	   -126.89999461	     21.55309834	     -0.00636623	      0.00815340	     -0.49820886	      0.00677818	     17.64406236	      0.01832602	      0.01590509	      0.01104377	     -0.02518585	      0.00180010	     32.32860271	    -10.89042414	      0.00000000	     -0.00000000	     -0.00000000	     -0.00000000	      0.05000000	      0.10000000	      0.05000000	      0.10000000	      0.05000000	      0.10000000	      0.05000000	      0.10000000
